<svg xmlns="http://www.w3.org/2000/svg" viewBox="0 0 64 64"><defs><linearGradient id="m" gradientUnits="userSpaceOnUse" x1="8" y1="8" x2="56" y2="56"><stop offset="0" stop-color="#eef5ea"/><stop offset=".5" stop-color="#98bb8e"/><stop offset="1" stop-color="#4a6a43"/></linearGradient></defs><rect x="2" y="2" width="60" height="60" rx="16" fill="#0e140d"/><rect x="2" y="2" width="60" height="60" rx="16" fill="none" stroke="url(#m)" stroke-width="2.5" stroke-opacity=".55"/><path d="M47 13c-12 1.5-21 9.5-24.5 21.5L22 41c6-1.5 12-5.5 16-11-2.8-.2-5.4 0-7.6.8 5-3.2 9-7.6 12-12.4 1.8-2.4 3.4-4 4.6-5.4z" fill="none" stroke="url(#m)" stroke-width="2.8" stroke-linejoin="round" stroke-opacity=".85"/><path d="M22 42 36 27" fill="none" stroke="url(#m)" stroke-width="2.6" stroke-linecap="round" stroke-opacity=".7"/><path d="M13 52c6-2 10 2 16 0s9-3 15-1" fill="none" stroke="url(#m)" stroke-width="2.6" stroke-linecap="round" stroke-opacity=".7"/><circle cx="19.5" cy="46" r="3.6" fill="#98bb8e"/></svg>
